<svg width="24" height="25" viewBox="0 0 24 25" fill="none" xmlns="http://www.w3.org/2000/svg">
<g clip-path="url(#clip0_101_158)">
<path d="M24 0.719971V24.72H0V0.719971H24ZM14.8327 1.57711H14.7723C13.2277 1.57711 11.9911 2.03472 11.0625 2.94988C10.1432 3.85588 9.67896 5.12729 9.6698 6.76401L9.66964 6.81372V9.73336H6.25446V13.6976H9.66964V23.8628H13.7679V13.6976H17.1696L17.692 9.73336H13.7679V7.20211C13.7679 6.55926 13.9018 6.07711 14.1696 5.75568C14.4334 5.43919 14.9395 5.27852 15.688 5.27365L15.7232 5.27354H17.8259V1.73783C17.1249 1.63401 16.1472 1.58044 14.8926 1.57727L14.8326 1.57711H14.8327Z" fill="#222326"/>
</g>
<defs>
<clipPath id="clip0_101_158">
<rect width="24" height="24" fill="white" transform="translate(0 0.719971)"/>
</clipPath>
</defs>
</svg>
