<svg width="54" height="54" viewBox="0 0 54 54" fill="none" xmlns="http://www.w3.org/2000/svg">
<rect width="54" height="54" rx="27" fill="#222326"/>
<rect width="24" height="24" transform="translate(15 15)" fill="white"/>
<g clip-path="url(#clip0_101_145)">
<g clip-path="url(#clip1_101_145)">
<path d="M15 27.3282V27.2857C15.0009 30.2843 15.0158 30.7064 15.072 31.948C15.272 36.306 17.69 38.728 22.052 38.928C23.333 38.986 23.741 39 27 39H15V27.3282ZM27.2808 17.163C30.2276 17.1637 30.622 17.1767 31.85 17.233C35.102 17.381 36.621 18.924 36.769 22.152C36.8253 23.3791 36.8373 23.7734 36.838 26.7201V27.2819C36.8372 30.2296 36.8243 30.6229 36.769 31.85C36.62 35.075 35.105 36.621 31.85 36.769C30.6093 36.8258 30.2215 36.8385 27.189 36.839H26.8111C23.7805 36.8385 23.3907 36.8259 22.151 36.769C18.891 36.62 17.38 35.07 17.232 31.849C17.1758 30.622 17.1628 30.2285 17.162 27.2809V26.8111C17.1626 23.7805 17.1761 23.3916 17.232 22.151C17.381 18.924 18.896 17.38 22.151 17.232C23.379 17.1767 23.7725 17.1637 26.7192 17.1631L27.2808 17.163ZM27 20.838C23.597 20.838 20.838 23.597 20.838 27C20.838 30.403 23.597 33.163 27 33.163C30.403 33.163 33.162 30.4039 33.162 27C33.162 23.597 30.403 20.838 27 20.838ZM27 23C29.209 23 31 24.791 31 27C31 29.21 29.209 31 27 31C24.791 31 23 29.21 23 27C23 24.791 24.791 23 27 23ZM33.406 19.155C32.61 19.155 31.965 19.8 31.965 20.595C31.965 21.39 32.61 22.035 33.406 22.035C34.201 22.035 34.845 21.39 34.845 20.595C34.845 19.8 34.201 19.155 33.406 19.155ZM39 27V39H27C30.259 39 30.668 38.986 31.948 38.928C36.302 38.728 38.73 36.31 38.927 31.948C38.9861 30.668 39 30.259 39 27ZM38.928 22.053C38.732 17.699 36.311 15.273 31.949 15.073C30.7064 15.0158 30.2843 15.0009 27.2857 15H39V27C39 23.741 38.986 23.333 38.928 22.053ZM15 15H26.7143C23.7158 15.0009 23.2946 15.0158 22.053 15.072C17.695 15.272 15.273 17.69 15.073 22.052C15.016 23.2887 15.001 23.7118 15 26.6718V15Z" fill="#222326"/>
</g>
</g>
<defs>
<clipPath id="clip0_101_145">
<rect width="24" height="24" fill="white" transform="translate(15 15)"/>
</clipPath>
<clipPath id="clip1_101_145">
<rect width="24" height="24" fill="white" transform="translate(15 15)"/>
</clipPath>
</defs>
</svg>
