<svg width="24" height="25" viewBox="0 0 24 25" fill="none" xmlns="http://www.w3.org/2000/svg">
<rect width="24" height="24" transform="translate(0 0.719971)" fill="white"/>
<g clip-path="url(#clip0_101_146)">
<g clip-path="url(#clip1_101_146)">
<path d="M0 13.0482V13.0057C0.000857143 16.0043 0.01575 16.4264 0.072 17.668C0.271982 22.026 2.69004 24.448 7.05198 24.648C8.33304 24.706 8.74098 24.72 12 24.72H0V13.0482ZM12.2808 2.88297C15.2276 2.88372 15.622 2.89668 16.85 2.95299C20.102 3.10095 21.621 4.64397 21.769 7.87197C21.8253 9.09902 21.8373 9.49336 21.838 12.4401V13.0019C21.8372 15.9495 21.8243 16.3429 21.769 17.57C21.62 20.795 20.105 22.341 16.85 22.489C15.6093 22.5458 15.2215 22.5585 12.189 22.559H11.8111C8.78046 22.5585 8.39068 22.5458 7.15098 22.489C3.891 22.34 2.38002 20.79 2.232 17.569C2.17575 16.3419 2.16279 15.9485 2.16204 13.0009V12.5311C2.16257 9.50043 2.17613 9.11161 2.232 7.87095C2.38098 4.64397 3.89598 3.09999 7.15098 2.95197C8.379 2.89669 8.77248 2.88372 11.7192 2.88302L12.2808 2.88297ZM12 6.55797C8.59698 6.55797 5.838 9.31695 5.838 12.72C5.838 16.123 8.59698 18.883 12 18.883C15.403 18.883 18.162 16.1239 18.162 12.72C18.162 9.31695 15.403 6.55797 12 6.55797ZM12 8.71995C14.209 8.71995 16 10.511 16 12.72C16 14.93 14.209 16.72 12 16.72C9.79098 16.72 7.99998 14.93 7.99998 12.72C7.99998 10.511 9.79098 8.71995 12 8.71995ZM18.406 4.87497C17.61 4.87497 16.965 5.51997 16.965 6.31497C16.965 7.10997 17.61 7.75497 18.406 7.75497C19.201 7.75497 19.845 7.10997 19.845 6.31497C19.845 5.51997 19.201 4.87497 18.406 4.87497ZM24 12.72V24.72H12C15.259 24.72 15.668 24.706 16.948 24.648C21.302 24.448 23.73 22.0299 23.927 17.668C23.9861 16.388 24 15.979 24 12.72ZM23.928 7.77297C23.732 3.41895 21.311 0.992971 16.949 0.792989C15.7064 0.735721 15.2843 0.720828 12.2857 0.719971H24V12.72C24 9.46095 23.986 9.05301 23.928 7.77297ZM0 0.719971H11.7143C8.71575 0.720828 8.29463 0.735721 7.053 0.791971C2.69496 0.991953 0.273 3.41001 0.0730179 7.77195C0.0160179 9.00865 0.00101786 9.43176 0 12.3917V0.719971Z" fill="#222326"/>
</g>
</g>
<defs>
<clipPath id="clip0_101_146">
<rect width="24" height="24" fill="white" transform="translate(0 0.719971)"/>
</clipPath>
<clipPath id="clip1_101_146">
<rect width="24" height="24" fill="white" transform="translate(0 0.719971)"/>
</clipPath>
</defs>
</svg>
