<svg width="132" height="41" viewBox="0 0 132 41" fill="none" xmlns="http://www.w3.org/2000/svg">
<path fill-rule="evenodd" clip-rule="evenodd" d="M129.552 19.9057C129.271 19.9065 128.991 19.8516 128.731 19.7441C128.47 19.6366 128.234 19.4787 128.035 19.2794C127.835 19.0801 127.678 18.8433 127.57 18.5828C127.463 18.3223 127.409 18.0432 127.41 17.7614C127.41 16.5846 128.358 15.6046 129.565 15.6046C129.847 15.6038 130.126 15.6587 130.386 15.7662C130.647 15.8737 130.883 16.0316 131.083 16.2309C131.282 16.4302 131.44 16.667 131.547 16.9275C131.654 17.188 131.709 17.4671 131.708 17.7489C131.708 18.3205 131.481 18.8688 131.076 19.2732C130.672 19.6777 130.124 19.9051 129.552 19.9057ZM129.565 15.8182C129.31 15.8162 129.057 15.8652 128.821 15.9623C128.585 16.0595 128.37 16.2027 128.191 16.3837C128.011 16.5647 127.869 16.7799 127.773 17.0164C127.678 17.253 127.63 17.5063 127.634 17.7614C127.634 18.8294 128.459 19.69 129.552 19.69C129.807 19.6917 130.06 19.6426 130.296 19.5455C130.532 19.4484 130.746 19.3053 130.925 19.1246C131.105 18.9438 131.247 18.7291 131.343 18.4929C131.439 18.2567 131.487 18.0038 131.484 17.7489C131.487 17.4953 131.441 17.2435 131.346 17.0083C131.251 16.7732 131.11 16.5593 130.931 16.3794C130.752 16.1995 130.539 16.0572 130.305 15.9608C130.07 15.8644 129.819 15.8159 129.565 15.8182ZM130.038 17.9687L130.646 18.8189H130.135L129.59 18.0399H129.119V18.8189H128.691V16.5679H129.697C130.218 16.5679 130.562 16.8359 130.562 17.2861C130.562 17.6546 130.348 17.8808 130.038 17.9687ZM129.678 16.9531H129.119V17.6651H129.678C129.957 17.6651 130.122 17.529 130.122 17.3091C130.122 17.0788 129.954 16.9531 129.678 16.9531ZM102.86 9.58227C102.28 9.58199 101.724 9.81183 101.315 10.2212C100.905 10.6306 100.674 11.186 100.674 11.7653C100.674 12.3445 100.904 12.9001 101.313 13.3099C101.723 13.7197 102.278 13.9501 102.858 13.9504C103.437 13.9504 103.993 13.7201 104.403 13.3104C104.813 12.9006 105.043 12.3448 105.043 11.7653C105.043 11.1857 104.813 10.63 104.403 10.2202C103.993 9.81039 103.437 9.58018 102.858 9.58018M104.366 15.6318H101.32C101.261 15.6324 101.205 15.6562 101.163 15.6982C101.121 15.7402 101.098 15.7968 101.098 15.8559V29.1444C101.098 29.2701 101.197 29.3685 101.32 29.3685H104.368C104.427 29.3685 104.484 29.3449 104.526 29.3029C104.568 29.2608 104.592 29.2038 104.592 29.1444V15.8559C104.592 15.7965 104.568 15.7395 104.526 15.6975C104.484 15.6554 104.425 15.6318 104.366 15.6318ZM111.139 15.6444V15.2256C111.139 13.986 111.615 13.4331 112.681 13.4331C113.316 13.4331 113.825 13.5588 114.398 13.7514C114.432 13.7628 114.468 13.766 114.503 13.7606C114.538 13.7553 114.572 13.7415 114.6 13.7206C114.629 13.6997 114.652 13.6721 114.668 13.6403C114.684 13.6085 114.692 13.5734 114.692 13.5378V10.9727C114.691 10.9247 114.676 10.8781 114.647 10.8397C114.619 10.8012 114.578 10.773 114.532 10.7591C113.711 10.5083 112.857 10.3854 111.998 10.3947C109.185 10.3947 107.698 11.9799 107.698 14.9764V15.6214H106.234C106.175 15.6214 106.118 15.6447 106.076 15.6862C106.034 15.7278 106.01 15.7843 106.01 15.8433V18.4755C106.01 18.599 106.11 18.6995 106.234 18.6995H107.698V29.1486C107.698 29.2701 107.796 29.3706 107.92 29.3706H110.968C111.027 29.37 111.083 29.3462 111.125 29.3042C111.166 29.2623 111.19 29.2056 111.19 29.1465V18.6975H114.034L118.393 29.1465C117.898 30.2417 117.412 30.4615 116.748 30.4615C116.21 30.4615 115.645 30.3003 115.067 29.9841C115.04 29.9698 115.01 29.9609 114.98 29.958C114.95 29.9552 114.92 29.9583 114.891 29.9674C114.861 29.9773 114.835 29.9933 114.812 30.0142C114.789 30.0351 114.771 30.0605 114.759 30.0888L113.726 32.3524C113.702 32.4035 113.698 32.4619 113.716 32.5156C113.733 32.5693 113.771 32.6143 113.82 32.6414C114.899 33.2256 115.873 33.4748 117.075 33.4748C119.325 33.4748 120.569 32.4278 121.664 29.6072L126.951 15.9501C126.965 15.9163 126.97 15.8796 126.966 15.8432C126.962 15.8069 126.95 15.772 126.929 15.7418C126.909 15.7115 126.881 15.6868 126.849 15.6698C126.816 15.6528 126.78 15.6441 126.744 15.6444H123.572C123.526 15.6449 123.481 15.6596 123.444 15.6866C123.406 15.7136 123.378 15.7515 123.363 15.7952L120.112 25.0737L116.552 15.7889C116.536 15.7466 116.508 15.7101 116.47 15.6843C116.433 15.6584 116.389 15.6445 116.344 15.6444H111.139ZM99.4581 15.6318H96.1069V12.204C96.1069 12.1746 96.1011 12.1456 96.0898 12.1185C96.0785 12.0915 96.062 12.0669 96.0411 12.0463C96.0203 12.0256 95.9956 12.0093 95.9684 11.9983C95.9412 11.9873 95.9121 11.9817 95.8828 11.982H92.8352C92.7765 11.9825 92.7204 12.0061 92.6788 12.0476C92.6373 12.0891 92.6138 12.1453 92.6132 12.204V15.6318H91.147C91.1177 15.6318 91.0887 15.6376 91.0616 15.6489C91.0345 15.6602 91.0099 15.6768 90.9893 15.6976C90.9687 15.7184 90.9524 15.7431 90.9413 15.7703C90.9303 15.7975 90.9248 15.8266 90.925 15.8559V18.4734C90.925 18.5969 91.0256 18.6975 91.147 18.6975H92.6132V25.4694C92.6132 28.2084 93.9747 29.5946 96.664 29.5946C97.7574 29.5946 98.6622 29.3706 99.5168 28.8869C99.5513 28.8674 99.58 28.8391 99.5999 28.8049C99.6198 28.7706 99.6301 28.7317 99.6299 28.6921V26.2003C99.6304 26.162 99.6211 26.1243 99.6028 26.0908C99.5845 26.0572 99.5578 26.029 99.5253 26.0088C99.4929 25.9885 99.4558 25.977 99.4176 25.9754C99.3794 25.9737 99.3414 25.9819 99.3073 25.9992C98.7209 26.2945 98.1532 26.4306 97.5186 26.4306C96.5405 26.4306 96.1048 25.9888 96.1048 24.9941V18.6975H99.456C99.4855 18.6977 99.5148 18.6921 99.5421 18.681C99.5695 18.6698 99.5943 18.6533 99.6151 18.6325C99.636 18.6116 99.6525 18.5868 99.6637 18.5595C99.6748 18.5322 99.6804 18.5029 99.6802 18.4734V15.8559C99.6804 15.8266 99.6749 15.7975 99.6639 15.7703C99.6528 15.7431 99.6365 15.7184 99.6159 15.6976C99.5952 15.6768 99.5707 15.6602 99.5436 15.6489C99.5165 15.6376 99.4875 15.6318 99.4581 15.6318ZM83.391 15.3533C79.2857 15.3533 76.0664 18.5153 76.0664 22.5504C76.0664 26.5437 79.2627 29.67 83.3407 29.67C87.4607 29.67 90.6883 26.5206 90.6883 22.5002C90.6883 18.4922 87.4837 15.3533 83.391 15.3533ZM83.391 26.5814C81.2064 26.5814 79.558 24.8266 79.558 22.4981C79.558 20.1633 81.1498 18.4692 83.3407 18.4692C85.54 18.4692 87.1947 20.224 87.1947 22.5525C87.1947 24.8873 85.5965 26.5814 83.391 26.5814ZM68.7 15.3533C66.9825 15.3533 65.5749 16.0297 64.4146 17.4138V15.8559C64.4146 15.7968 64.3912 15.7402 64.3497 15.6982C64.3081 15.6562 64.2516 15.6324 64.1925 15.6318H61.145C61.0859 15.6324 61.0294 15.6562 60.9879 15.6982C60.9463 15.7402 60.923 15.7968 60.923 15.8559V33.1733C60.923 33.2947 61.0235 33.3952 61.145 33.3952H64.1925C64.2513 33.3947 64.3074 33.3711 64.3489 33.3296C64.3904 33.2881 64.414 33.232 64.4146 33.1733V27.7079C65.577 29.0083 66.9846 29.6449 68.7 29.6449C71.8878 29.6449 75.1155 27.1907 75.1155 22.5002C75.1155 17.8096 71.8899 15.3533 68.7 15.3533ZM71.5737 22.5002C71.5737 24.8873 70.1012 26.5562 67.9941 26.5562C65.91 26.5562 64.3392 24.8119 64.3392 22.5002C64.3392 20.1884 65.91 18.4441 67.9941 18.4441C70.0677 18.4441 71.5737 20.1486 71.5737 22.5002ZM53.9042 18.71C50.5027 17.8975 49.8974 17.328 49.8974 16.1323C49.8974 15.0015 50.9614 14.2414 52.5449 14.2414C54.078 14.2414 55.6008 14.8173 57.1947 16.0067C57.2185 16.0242 57.2455 16.0369 57.2741 16.044C57.3028 16.051 57.3326 16.0524 57.3618 16.0479C57.391 16.0434 57.419 16.0332 57.4443 16.0179C57.4695 16.0025 57.4915 15.9824 57.5089 15.9585L59.1719 13.6153C59.2042 13.569 59.2179 13.5122 59.2101 13.4563C59.2023 13.4004 59.1737 13.3495 59.1301 13.3138C57.2324 11.7893 55.0939 11.0502 52.5951 11.0502C48.9192 11.0502 46.3534 13.2531 46.3534 16.4087C46.3534 19.7905 48.5673 20.9883 52.394 21.9117C55.6489 22.6614 56.1998 23.2896 56.1998 24.4141C56.1998 25.6579 55.0897 26.4306 53.2989 26.4306C51.3133 26.4306 49.6942 25.7605 47.8803 24.1942C47.835 24.1556 47.7764 24.1361 47.717 24.1398C47.6874 24.142 47.6587 24.1503 47.6324 24.1639C47.6061 24.1776 47.5829 24.1965 47.5641 24.2193L45.6999 26.4348C45.6619 26.4789 45.643 26.5364 45.6473 26.5945C45.6516 26.6526 45.6788 26.7066 45.723 26.7447C47.7768 28.605 50.4521 29.6305 53.2235 29.6198C57.1821 29.6198 59.7417 27.4567 59.7417 24.1104C59.7417 21.2814 58.0514 19.7172 53.9042 18.7079M19.9351 0.638794C14.7078 0.638794 9.69463 2.7148 5.99837 6.41012C2.30212 10.1054 0.225586 15.1174 0.225586 20.3433C0.225586 25.5693 2.30212 30.5812 5.99837 34.2766C9.69463 37.9719 14.7078 40.0479 19.9351 40.0479C25.1624 40.0479 30.1756 37.9719 33.8719 34.2766C37.5681 30.5812 39.6446 25.5693 39.6446 20.3433C39.6446 15.1174 37.5681 10.1054 33.8719 6.41012C30.1756 2.7148 25.1624 0.638794 19.9351 0.638794ZM28.9751 29.0586C28.8911 29.1966 28.7808 29.3166 28.6503 29.4119C28.5198 29.5071 28.3718 29.5757 28.2148 29.6136C28.0577 29.6515 27.8947 29.6581 27.7352 29.6329C27.5756 29.6078 27.4225 29.5513 27.2848 29.4669C22.6559 26.64 16.8331 26.0013 9.97143 27.5676C9.81424 27.6035 9.65151 27.6081 9.49255 27.5811C9.33358 27.5541 9.18149 27.4961 9.04495 27.4104C8.90842 27.3246 8.79011 27.2128 8.69679 27.0813C8.60347 26.9499 8.53697 26.8013 8.50107 26.6442C8.46518 26.487 8.4606 26.3243 8.48759 26.1654C8.51458 26.0065 8.57262 25.8544 8.6584 25.7179C8.74417 25.5814 8.85599 25.4632 8.98749 25.3699C9.11898 25.2766 9.26757 25.2101 9.42476 25.1742C16.9316 23.4571 23.3722 24.1963 28.5667 27.3708C29.1448 27.7247 29.327 28.4806 28.9751 29.0586ZM31.3838 23.6937C31.1707 24.0404 30.8287 24.2884 30.433 24.3834C30.0372 24.4784 29.6199 24.4126 29.2725 24.2005C23.9755 20.9443 15.899 20.002 9.63212 21.9034C9.25083 21.9938 8.8494 21.9355 8.50965 21.7402C8.16989 21.545 7.9174 21.2276 7.80362 20.8527C7.68984 20.4778 7.72334 20.0737 7.89731 19.7226C8.07127 19.3715 8.37259 19.1 8.73985 18.9634C15.899 16.7919 24.7965 17.8452 30.879 21.5809C31.0513 21.6864 31.2011 21.8248 31.3198 21.9883C31.4385 22.1517 31.5239 22.3369 31.5709 22.5333C31.618 22.7297 31.6259 22.9335 31.5941 23.133C31.5624 23.3325 31.4916 23.5237 31.3859 23.6958M31.5954 18.1069C25.2406 14.3357 14.7595 13.988 8.69586 15.8308C8.46317 15.905 8.21804 15.9322 7.97472 15.9109C7.7314 15.8896 7.49475 15.8201 7.27852 15.7065C7.06229 15.593 6.87079 15.4376 6.71516 15.2494C6.55952 15.0612 6.44285 14.8439 6.37193 14.6103C6.301 14.3766 6.27724 14.1312 6.30202 13.8883C6.32681 13.6453 6.39963 13.4097 6.51628 13.1952C6.63292 12.9807 6.79106 12.7914 6.98149 12.6385C7.17192 12.4856 7.39085 12.3721 7.62556 12.3045C14.5857 10.1895 26.1601 10.6 33.4721 14.9387C33.8926 15.1881 34.1968 15.5942 34.3178 16.0678C34.4388 16.5414 34.3666 17.0437 34.1172 17.4641C33.8678 17.8845 33.4615 18.1886 32.9878 18.3096C32.5141 18.4305 32.0117 18.3584 31.5912 18.109" fill="white"/>
</svg>
