<svg width="54" height="54" viewBox="0 0 54 54" fill="none" xmlns="http://www.w3.org/2000/svg">
<rect width="54" height="54" rx="27" fill="#222326"/>
<rect width="24" height="24" transform="translate(15 15)" fill="white"/>
<g clip-path="url(#clip0_146_7)">
<g clip-path="url(#clip1_146_7)">
<path d="M39 15V39H15V15H39ZM31.058 18.4286C29.8616 18.4286 28.8415 18.8504 27.9978 19.6942C27.154 20.5379 26.7321 21.5581 26.7321 22.7545C26.7321 23.0759 26.7679 23.4063 26.8393 23.7455C25.0714 23.6562 23.413 23.2121 21.8638 22.4129C20.3147 21.6138 19 20.5491 17.9196 19.2188C17.5268 19.8884 17.3304 20.6161 17.3304 21.4018C17.3304 22.1428 17.5045 22.8304 17.8527 23.4643C18.2009 24.0982 18.6696 24.6116 19.2589 25.0045C18.5777 24.9782 17.9391 24.8025 17.3432 24.4773L17.3036 24.4554V24.5089C17.3036 25.5536 17.6317 26.471 18.2879 27.2612C18.9442 28.0513 19.7723 28.5491 20.7723 28.7545C20.4008 28.8522 20.0181 28.9017 19.6339 28.9018C19.3839 28.9018 19.1116 28.8794 18.817 28.8348C19.0938 29.7009 19.6027 30.4129 20.3438 30.971C21.0848 31.529 21.9241 31.817 22.8616 31.8348C21.2902 33.067 19.5 33.683 17.4911 33.683C17.1071 33.683 16.7589 33.6652 16.4464 33.6295C18.4554 34.9241 20.6696 35.5714 23.0893 35.5714C24.625 35.5714 26.0669 35.3281 27.4152 34.8415C28.7634 34.3549 29.9152 33.7031 30.8705 32.8862C31.8259 32.0692 32.6495 31.1294 33.3415 30.067C34.0335 29.0045 34.5491 27.8951 34.8884 26.7388C35.2277 25.5826 35.3973 24.4241 35.3973 23.2634C35.3973 23.0134 35.3929 22.8259 35.3839 22.7009C36.2321 22.0848 36.9553 21.3393 37.5536 20.4643C36.7232 20.8214 35.8929 21.0446 35.0625 21.1339C36 20.5714 36.6339 19.7768 36.9643 18.75C36.1071 19.2589 35.192 19.6071 34.2188 19.7946C33.3616 18.8839 32.308 18.4286 31.058 18.4286Z" fill="#222326"/>
</g>
</g>
<defs>
<clipPath id="clip0_146_7">
<rect width="24" height="24" fill="white" transform="translate(15 15)"/>
</clipPath>
<clipPath id="clip1_146_7">
<rect width="24" height="24" fill="white" transform="translate(15 15)"/>
</clipPath>
</defs>
</svg>
