<svg width="24" height="25" viewBox="0 0 24 25" fill="none" xmlns="http://www.w3.org/2000/svg">
<rect width="24" height="24" transform="translate(0 0.719971)" fill="white"/>
<g clip-path="url(#clip0_101_151)">
<g clip-path="url(#clip1_101_151)">
<path d="M24 0.719971V24.72H0V0.719971H24ZM16.058 4.14854C14.8616 4.14854 13.8415 4.57042 12.9978 5.41417C12.154 6.25792 11.7321 7.27802 11.7321 8.47443C11.7321 8.79586 11.7679 9.12624 11.8393 9.46551C10.0714 9.3762 8.41296 8.93204 6.86384 8.13292C5.31471 7.33379 4.00002 6.26906 2.91964 4.93872C2.5268 5.60836 2.33036 6.33602 2.33036 7.12176C2.33036 7.86281 2.50446 8.55035 2.85268 9.18426C3.20089 9.81817 3.66964 10.3316 4.25893 10.7244C3.57766 10.6982 2.93909 10.5225 2.34321 10.1972L2.30357 10.1753V10.2289C2.30357 11.2735 2.6317 12.191 3.28795 12.9811C3.9442 13.7713 4.7723 14.2691 5.77232 14.4744C5.40075 14.5722 5.01814 14.6217 4.63393 14.6218C4.38391 14.6218 4.11161 14.5994 3.81696 14.5548C4.09377 15.4209 4.6027 16.1329 5.34375 16.691C6.0848 17.249 6.92411 17.537 7.86161 17.5548C6.2902 18.7869 4.5 19.403 2.49107 19.403C2.10713 19.403 1.75891 19.3852 1.44643 19.3494C3.45536 20.6441 5.66963 21.2914 8.08929 21.2914C9.62502 21.2914 11.0669 21.0481 12.4152 20.5615C13.7634 20.0749 14.9152 19.4231 15.8705 18.6061C16.8259 17.7892 17.6495 16.8494 18.3415 15.7869C19.0335 14.7245 19.5491 13.615 19.8884 12.4588C20.2277 11.3026 20.3973 10.1441 20.3973 8.98336C20.3973 8.73335 20.3929 8.54585 20.3839 8.42086C21.2321 7.80479 21.9553 7.05924 22.5536 6.18426C21.7232 6.54142 20.8929 6.7646 20.0625 6.8539C21 6.2914 21.6339 5.49677 21.9643 4.46997C21.1071 4.9789 20.192 5.32711 19.2188 5.51461C18.3616 4.6039 17.308 4.14854 16.058 4.14854Z" fill="#222326"/>
</g>
</g>
<defs>
<clipPath id="clip0_101_151">
<rect width="24" height="24" fill="white" transform="translate(0 0.719971)"/>
</clipPath>
<clipPath id="clip1_101_151">
<rect width="24" height="24" fill="white" transform="translate(0 0.719971)"/>
</clipPath>
</defs>
</svg>
