<svg width="54" height="54" viewBox="0 0 54 54" fill="none" xmlns="http://www.w3.org/2000/svg">
<rect width="54" height="54" rx="27" fill="#222326"/>
<rect width="24" height="24" transform="translate(15 15)" fill="white"/>
<g clip-path="url(#clip0_146_5)">
<g clip-path="url(#clip1_146_5)">
<path d="M39 15V39H15V15H39ZM29.8327 15.8571H29.7723C28.2277 15.8571 26.9911 16.3147 26.0625 17.2299C25.1432 18.1359 24.679 19.4073 24.6698 21.044L24.6696 21.0938V24.0134H21.2545V27.9777H24.6696V38.1429H28.7679V27.9777H32.1696L32.692 24.0134H28.7679V21.4821C28.7679 20.8393 28.9018 20.3571 29.1696 20.0357C29.4334 19.7192 29.9395 19.5586 30.688 19.5537L30.7232 19.5536H32.8259V16.0179C32.1249 15.914 31.1472 15.8605 29.8926 15.8573L29.8326 15.8571H29.8327Z" fill="#222326"/>
</g>
</g>
<defs>
<clipPath id="clip0_146_5">
<rect width="24" height="24" fill="white" transform="translate(15 15)"/>
</clipPath>
<clipPath id="clip1_146_5">
<rect width="24" height="24" fill="white" transform="translate(15 15)"/>
</clipPath>
</defs>
</svg>
